#N canvas 669 520 519 129 12;
#N canvas 776 429 709 378 scratch-\$0 1;
#X coords 0 378 1 377 500 500 0;
#X restore 183 33 pd scratch-\$0;
#X obj 23 67 send pd-scratch-\$0;
#N canvas 537 326 450 412 communication 0;
#X obj 25 320 outlet;
#X obj 25 64 netreceive 3001;
#X msg 186 96 vis 1;
#X msg 185 69 msg 80 80 a message box;
#X msg 186 123 clear;
#X msg 186 150 obj 50 30 osc~ 440;
#X obj 193 227 netreceive 9999 1;
#X obj 193 283 list trim;
#X obj 193 256 list prepend send;
#X msg 57 253 ack;
#X obj 57 280 print;
#X obj 57 226 bng 19 250 50 0 empty empty empty 0 -10 0 12 #fcfcfc #000000 #000000;
#X obj 25 91 t a b;
#X obj 184 45 loadbang;
#X connect 1 0 12 0;
#X connect 2 0 0 0;
#X connect 3 0 0 0;
#X connect 4 0 0 0;
#X connect 5 0 0 0;
#X connect 6 0 8 0;
#X connect 7 0 1 0;
#X connect 8 0 7 0;
#X connect 9 0 10 0;
#X connect 11 0 9 0;
#X connect 12 0 0 0;
#X connect 12 1 11 0;
#X connect 13 0 2 0;
#X restore 24 33 pd communication;
#X connect 2 0 1 0;
